<mxfile host="app.diagrams.net" agent="Mozilla/5.0 (Windows NT 10.0; Win64; x64) AppleWebKit/537.36 (KHTML, like Gecko) Chrome/139.0.0.0 Safari/537.36" version="28.1.1">
  <diagram name="Page-1" id="ahaaUWVFpi-iZXFvmwur">
    <mxGraphModel dx="838" dy="506" grid="1" gridSize="10" guides="1" tooltips="1" connect="1" arrows="1" fold="1" page="1" pageScale="1" pageWidth="827" pageHeight="1169" math="0" shadow="0">
      <root>
        <mxCell id="0" />
        <mxCell id="1" parent="0" />
        <mxCell id="5x5Q-e-yfWX6hX2OexHq-5" value="Utilisateur" style="swimlane;fontStyle=1;align=center;verticalAlign=top;childLayout=stackLayout;horizontal=1;startSize=26;horizontalStack=0;resizeParent=1;resizeParentMax=0;resizeLast=0;collapsible=1;marginBottom=0;whiteSpace=wrap;html=1;" vertex="1" parent="1">
          <mxGeometry x="440" y="20" width="160" height="260" as="geometry" />
        </mxCell>
        <mxCell id="5x5Q-e-yfWX6hX2OexHq-6" value="+ Id&lt;div&gt;+&amp;nbsp; pseudo : string&lt;div&gt;-password : string&lt;/div&gt;&lt;div&gt;- mail : string&lt;/div&gt;&lt;div&gt;+ age&lt;/div&gt;&lt;div&gt;&lt;div&gt;+ hebdomadiare&lt;/div&gt;&lt;div&gt;+ activité&lt;/div&gt;&lt;div&gt;+ amis&lt;/div&gt;&lt;/div&gt;&lt;/div&gt;&lt;div&gt;+ stat_hebdo&lt;/div&gt;" style="text;strokeColor=none;fillColor=none;align=left;verticalAlign=top;spacingLeft=4;spacingRight=4;overflow=hidden;rotatable=0;points=[[0,0.5],[1,0.5]];portConstraint=eastwest;whiteSpace=wrap;html=1;" vertex="1" parent="5x5Q-e-yfWX6hX2OexHq-5">
          <mxGeometry y="26" width="160" height="134" as="geometry" />
        </mxCell>
        <mxCell id="5x5Q-e-yfWX6hX2OexHq-7" value="" style="line;strokeWidth=1;fillColor=none;align=left;verticalAlign=middle;spacingTop=-1;spacingLeft=3;spacingRight=3;rotatable=0;labelPosition=right;points=[];portConstraint=eastwest;strokeColor=inherit;" vertex="1" parent="5x5Q-e-yfWX6hX2OexHq-5">
          <mxGeometry y="160" width="160" height="18" as="geometry" />
        </mxCell>
        <mxCell id="5x5Q-e-yfWX6hX2OexHq-8" value="+ create_activity: type&lt;div&gt;+ liker&lt;/div&gt;&lt;div&gt;+ commenter&lt;/div&gt;&lt;div&gt;+ follow&lt;/div&gt;&lt;div&gt;+ stat_hebdo&amp;nbsp;&lt;/div&gt;" style="text;strokeColor=none;fillColor=none;align=left;verticalAlign=top;spacingLeft=4;spacingRight=4;overflow=hidden;rotatable=0;points=[[0,0.5],[1,0.5]];portConstraint=eastwest;whiteSpace=wrap;html=1;" vertex="1" parent="5x5Q-e-yfWX6hX2OexHq-5">
          <mxGeometry y="178" width="160" height="82" as="geometry" />
        </mxCell>
        <mxCell id="5x5Q-e-yfWX6hX2OexHq-9" value="Activité" style="swimlane;fontStyle=1;align=center;verticalAlign=top;childLayout=stackLayout;horizontal=1;startSize=26;horizontalStack=0;resizeParent=1;resizeParentMax=0;resizeLast=0;collapsible=1;marginBottom=0;whiteSpace=wrap;html=1;" vertex="1" parent="1">
          <mxGeometry x="420" y="320" width="160" height="210" as="geometry" />
        </mxCell>
        <mxCell id="5x5Q-e-yfWX6hX2OexHq-10" value="+ sport: type&lt;div&gt;+ date&lt;/div&gt;&lt;div&gt;&lt;span style=&quot;background-color: transparent; color: light-dark(rgb(0, 0, 0), rgb(255, 255, 255));&quot;&gt;+ itinéraire&lt;/span&gt;&lt;/div&gt;&lt;div&gt;&lt;span style=&quot;background-color: transparent; color: light-dark(rgb(0, 0, 0), rgb(255, 255, 255));&quot;&gt;+ detail&lt;/span&gt;&lt;/div&gt;&lt;div&gt;+ like : list&lt;/div&gt;&lt;div&gt;+ commentaire : string&lt;/div&gt;&lt;div&gt;+gpx&lt;/div&gt;" style="text;strokeColor=none;fillColor=none;align=left;verticalAlign=top;spacingLeft=4;spacingRight=4;overflow=hidden;rotatable=0;points=[[0,0.5],[1,0.5]];portConstraint=eastwest;whiteSpace=wrap;html=1;" vertex="1" parent="5x5Q-e-yfWX6hX2OexHq-9">
          <mxGeometry y="26" width="160" height="124" as="geometry" />
        </mxCell>
        <mxCell id="5x5Q-e-yfWX6hX2OexHq-11" value="" style="line;strokeWidth=1;fillColor=none;align=left;verticalAlign=middle;spacingTop=-1;spacingLeft=3;spacingRight=3;rotatable=0;labelPosition=right;points=[];portConstraint=eastwest;strokeColor=inherit;" vertex="1" parent="5x5Q-e-yfWX6hX2OexHq-9">
          <mxGeometry y="150" width="160" height="8" as="geometry" />
        </mxCell>
        <mxCell id="5x5Q-e-yfWX6hX2OexHq-12" value="+ vitesse&lt;div&gt;+ tracer_itinéraire&lt;/div&gt;" style="text;strokeColor=none;fillColor=none;align=left;verticalAlign=top;spacingLeft=4;spacingRight=4;overflow=hidden;rotatable=0;points=[[0,0.5],[1,0.5]];portConstraint=eastwest;whiteSpace=wrap;html=1;" vertex="1" parent="5x5Q-e-yfWX6hX2OexHq-9">
          <mxGeometry y="158" width="160" height="52" as="geometry" />
        </mxCell>
        <mxCell id="5x5Q-e-yfWX6hX2OexHq-13" value="Sport (enum)" style="swimlane;fontStyle=1;align=center;verticalAlign=top;childLayout=stackLayout;horizontal=1;startSize=26;horizontalStack=0;resizeParent=1;resizeParentMax=0;resizeLast=0;collapsible=1;marginBottom=0;whiteSpace=wrap;html=1;" vertex="1" parent="1">
          <mxGeometry x="60" y="430" width="160" height="88" as="geometry" />
        </mxCell>
        <mxCell id="5x5Q-e-yfWX6hX2OexHq-14" value="+velo&lt;div&gt;+course&lt;/div&gt;&lt;div&gt;+natation&lt;/div&gt;" style="text;strokeColor=none;fillColor=none;align=left;verticalAlign=top;spacingLeft=4;spacingRight=4;overflow=hidden;rotatable=0;points=[[0,0.5],[1,0.5]];portConstraint=eastwest;whiteSpace=wrap;html=1;" vertex="1" parent="5x5Q-e-yfWX6hX2OexHq-13">
          <mxGeometry y="26" width="160" height="54" as="geometry" />
        </mxCell>
        <mxCell id="5x5Q-e-yfWX6hX2OexHq-15" value="" style="line;strokeWidth=1;fillColor=none;align=left;verticalAlign=middle;spacingTop=-1;spacingLeft=3;spacingRight=3;rotatable=0;labelPosition=right;points=[];portConstraint=eastwest;strokeColor=inherit;" vertex="1" parent="5x5Q-e-yfWX6hX2OexHq-13">
          <mxGeometry y="80" width="160" height="8" as="geometry" />
        </mxCell>
        <mxCell id="5x5Q-e-yfWX6hX2OexHq-37" value="Detail (value object)" style="swimlane;fontStyle=1;align=center;verticalAlign=top;childLayout=stackLayout;horizontal=1;startSize=26;horizontalStack=0;resizeParent=1;resizeParentMax=0;resizeLast=0;collapsible=1;marginBottom=0;whiteSpace=wrap;html=1;" vertex="1" parent="1">
          <mxGeometry x="50" y="260" width="160" height="128" as="geometry" />
        </mxCell>
        <mxCell id="5x5Q-e-yfWX6hX2OexHq-38" value="&lt;div&gt;+ debut_activite&lt;/div&gt;&lt;div&gt;+ fin_activité&lt;/div&gt;+ duree&lt;div&gt;+ distance&lt;/div&gt;&lt;div&gt;+ denivelé&lt;/div&gt;&lt;div&gt;+ gpx&lt;/div&gt;" style="text;strokeColor=none;fillColor=none;align=left;verticalAlign=top;spacingLeft=4;spacingRight=4;overflow=hidden;rotatable=0;points=[[0,0.5],[1,0.5]];portConstraint=eastwest;whiteSpace=wrap;html=1;" vertex="1" parent="5x5Q-e-yfWX6hX2OexHq-37">
          <mxGeometry y="26" width="160" height="94" as="geometry" />
        </mxCell>
        <mxCell id="5x5Q-e-yfWX6hX2OexHq-39" value="" style="line;strokeWidth=1;fillColor=none;align=left;verticalAlign=middle;spacingTop=-1;spacingLeft=3;spacingRight=3;rotatable=0;labelPosition=right;points=[];portConstraint=eastwest;strokeColor=inherit;" vertex="1" parent="5x5Q-e-yfWX6hX2OexHq-37">
          <mxGeometry y="120" width="160" height="8" as="geometry" />
        </mxCell>
        <mxCell id="5x5Q-e-yfWX6hX2OexHq-46" value="Stat" style="swimlane;fontStyle=1;align=center;verticalAlign=top;childLayout=stackLayout;horizontal=1;startSize=26;horizontalStack=0;resizeParent=1;resizeParentMax=0;resizeLast=0;collapsible=1;marginBottom=0;whiteSpace=wrap;html=1;" vertex="1" parent="1">
          <mxGeometry x="210" y="70" width="160" height="154" as="geometry" />
        </mxCell>
        <mxCell id="5x5Q-e-yfWX6hX2OexHq-47" value="+ sport&lt;div&gt;+durée&lt;/div&gt;&lt;div&gt;+ distance&lt;/div&gt;&lt;div&gt;+ denivelé&lt;/div&gt;&lt;div&gt;+ activité&lt;/div&gt;" style="text;strokeColor=none;fillColor=none;align=left;verticalAlign=top;spacingLeft=4;spacingRight=4;overflow=hidden;rotatable=0;points=[[0,0.5],[1,0.5]];portConstraint=eastwest;whiteSpace=wrap;html=1;" vertex="1" parent="5x5Q-e-yfWX6hX2OexHq-46">
          <mxGeometry y="26" width="160" height="94" as="geometry" />
        </mxCell>
        <mxCell id="5x5Q-e-yfWX6hX2OexHq-48" value="" style="line;strokeWidth=1;fillColor=none;align=left;verticalAlign=middle;spacingTop=-1;spacingLeft=3;spacingRight=3;rotatable=0;labelPosition=right;points=[];portConstraint=eastwest;strokeColor=inherit;" vertex="1" parent="5x5Q-e-yfWX6hX2OexHq-46">
          <mxGeometry y="120" width="160" height="8" as="geometry" />
        </mxCell>
        <mxCell id="5x5Q-e-yfWX6hX2OexHq-49" value="+ method(type): type" style="text;strokeColor=none;fillColor=none;align=left;verticalAlign=top;spacingLeft=4;spacingRight=4;overflow=hidden;rotatable=0;points=[[0,0.5],[1,0.5]];portConstraint=eastwest;whiteSpace=wrap;html=1;" vertex="1" parent="5x5Q-e-yfWX6hX2OexHq-46">
          <mxGeometry y="128" width="160" height="26" as="geometry" />
        </mxCell>
        <mxCell id="5x5Q-e-yfWX6hX2OexHq-50" value="periode (enum)" style="swimlane;fontStyle=1;align=center;verticalAlign=top;childLayout=stackLayout;horizontal=1;startSize=26;horizontalStack=0;resizeParent=1;resizeParentMax=0;resizeLast=0;collapsible=1;marginBottom=0;whiteSpace=wrap;html=1;" vertex="1" parent="1">
          <mxGeometry x="20" y="20" width="160" height="108" as="geometry" />
        </mxCell>
        <mxCell id="5x5Q-e-yfWX6hX2OexHq-51" value="+ semaine&lt;div&gt;+ mois&amp;nbsp;&lt;/div&gt;&lt;div&gt;+ annee&lt;/div&gt;&lt;div&gt;+ total&lt;/div&gt;" style="text;strokeColor=none;fillColor=none;align=left;verticalAlign=top;spacingLeft=4;spacingRight=4;overflow=hidden;rotatable=0;points=[[0,0.5],[1,0.5]];portConstraint=eastwest;whiteSpace=wrap;html=1;" vertex="1" parent="5x5Q-e-yfWX6hX2OexHq-50">
          <mxGeometry y="26" width="160" height="74" as="geometry" />
        </mxCell>
        <mxCell id="5x5Q-e-yfWX6hX2OexHq-52" value="" style="line;strokeWidth=1;fillColor=none;align=left;verticalAlign=middle;spacingTop=-1;spacingLeft=3;spacingRight=3;rotatable=0;labelPosition=right;points=[];portConstraint=eastwest;strokeColor=inherit;" vertex="1" parent="5x5Q-e-yfWX6hX2OexHq-50">
          <mxGeometry y="100" width="160" height="8" as="geometry" />
        </mxCell>
      </root>
    </mxGraphModel>
  </diagram>
</mxfile>
